<?xml version="1.0" encoding="utf-8"?><!-- Generator: Adobe Illustrator 19.0.0, SVG Export Plug-In . SVG Version: 6.00 Build 0)  --><svg version="1.1" id="Layer_1" xmlns="http://www.w3.org/2000/svg" xmlns:xlink="http://www.w3.org/1999/xlink" x="0px" y="0px" viewBox="0 0 96 96" style="enable-background:new 0 0 96 96;" xml:space="preserve"><style type="text/css">	.st0{fill:#333333;}</style><g id="XMLID_2_"><path id="XMLID_7_" class="st0" d="M41.6,18c-1.4,0-2.6,1.1-2.6,2.6v5.8c-6.8,1.1-11.5,3.5-11.5,6.3c0,5.6,9.1,7,20.4,7 s20.4-1.2,20.4-7c0-2.9-4-5.5-11.5-6.5v-5.6c0-1.4-1.1-2.6-2.6-2.6H41.6z M42.9,21.8h10.2v4c-1.2-0.1-3.4-0.2-5.1-0.2		c-1.8,0-3.5,0.1-5.1,0.2V21.8z M30.2,41.1l2.4,31.7c0,2.8,6.2,5.1,15.3,5.1c9.2,0,15.3-2.3,15.3-5.1l2.4-31.7		C62.2,42.9,55.6,44,48,44C40.4,44,33.8,42.9,30.2,41.1z"/></g></svg>